<?xml version="1.0" encoding="utf-8"?>
<!-- Generator: Adobe Illustrator 22.1.0, SVG Export Plug-In . SVG Version: 6.00 Build 0)  -->
<svg version="1.1" id="Calque_1" xmlns="http://www.w3.org/2000/svg" xmlns:xlink="http://www.w3.org/1999/xlink" x="0px" y="0px"
	 viewBox="0 0 78.5 78.5" style="enable-background:new 0 0 78.5 78.5;" xml:space="preserve">
<g>
	<path d="M78.1,73l-1.3-2.8c-0.2-0.5-0.5-0.9-0.9-1.2L48.2,41.4l-2.1,2.1l27.7,27.7c0.1,0.1,0.2,0.3,0.3,0.4l1.3,2.8
		c0.2,0.4,0.2,0.8-0.1,1c-0.2,0.2-0.6,0.3-1,0.1l-2.8-1.3c-0.1-0.1-0.3-0.2-0.4-0.3L45.6,48.2l-2.1-2.1l-2.1,2.1L69,75.9
		c0.4,0.4,0.8,0.7,1.2,0.9l2.8,1.3c1.5,0.7,3.3,0.5,4.5-0.6C78.6,76.3,78.8,74.5,78.1,73z M29.7,27.1l6.1,6.1l2.1-2.1l-6.5-6.5
		c2.4-4.2,2.7-8.6,0.4-11c-0.5-0.5-1.2-0.9-2-1.2c-0.5-3-1.9-5.8-4.2-8.1c-5.9-5.9-15.5-5.9-21.3,0c-5.9,5.9-5.9,15.5,0,21.3
		c2.3,2.3,5.1,3.7,8,4.2c0.2,0.8,0.6,1.4,1.2,2c2.3,2.3,6.8,2,11-0.4l6.5,6.5l2.1-2.1l-6.1-6.1c0.5-0.4,0.9-0.8,1.4-1.3
		C28.9,28,29.3,27.6,29.7,27.1z M6.5,23.6c-4.7-4.7-4.7-12.4,0-17.1c4.7-4.7,12.4-4.7,17.1,0c4.7,4.7,4.7,12.4,0,17.1
		S11.2,28.3,6.5,23.6z M26.4,26.4c-3.6,3.6-8.2,4.8-10.2,3.7c3.5-0.3,6.9-1.7,9.5-4.4c2.7-2.6,4.1-6,4.3-9.5
		C31.2,18.2,29.9,22.8,26.4,26.4z"/>
	<path d="M20.8,9.4c-3.1-3.1-8.3-3.1-11.4,0c-3.2,3.2-3.2,8.3,0,11.4c3.2,3.2,8.3,3.2,11.4,0C23.9,17.6,23.9,12.5,20.8,9.4z
		 M18.7,18.7c-2,2-5.2,2-7.2,0c-2-2-2-5.2,0-7.2c2-2,5.2-2,7.2,0C20.6,13.5,20.6,16.7,18.7,18.7z"/>
</g>
<g>
	<path d="M45.4,42.7L45.4,42.7 M45.4,42.7L45.4,42.7 M45.4,42.7L45.4,42.7 M45.4,42.7L45.4,42.7 M45.4,42.7L45.4,42.7"/>
	<path d="M76.4,2.4c-2.8-2.8-7.3-2.8-10.1,0c-1.5,1.5-2.2,3.5-2.1,5.4L53.1,19.1l-10.5-4.2c-0.8-0.3-1.8-0.1-2.4,0.5l-2.4,2.4
		c-0.5,0.5-0.8,1.3-0.6,2.1c0.2,0.8,0.7,1.4,1.4,1.6l3.9,1.5L34,31.4L31.4,34L3.2,62.2c-0.3,0.3-0.5,0.7-0.6,1.1L0.1,75.4
		c-0.2,0.7,0,1.5,0.6,2c0.5,0.5,1.3,0.8,2,0.7l12.8-1.9c0.5-0.1,0.9-0.3,1.3-0.6l39.1-39.1l1.5,3.9c0.3,0.7,0.9,1.2,1.7,1.4
		c0.8,0.2,1.5-0.1,2.1-0.6l2.3-2.4c0.6-0.6,0.8-1.6,0.5-2.4l-4.2-10.5L71,14.6c2,0.1,3.9-0.6,5.4-2.1C79.2,9.7,79.2,5.2,76.4,2.4z
		 M14.7,73.3L3.2,75l2.3-10.9l25.9-25.9l2.1-2.1l2.6-2.6l9.3-9.3l5.1,2L32.8,43.9c-0.6,0.6-0.6,1.5,0,2.1c0.6,0.6,1.5,0.6,2.1,0
		l17.7-17.6l2,5.1 M61,37l-1.2,1.2l-5-12.8c0,0-0.3-0.6-0.5-0.8c-0.2-0.2-0.8-0.4-0.8-0.5l-12.8-5.1l1.2-1.2l13.7,5.4L61,37z
		 M58.6,22.7l-0.3-0.9c-0.1-0.3-0.3-0.5-0.5-0.8c-0.2-0.2-0.5-0.4-0.8-0.5l-0.9-0.3l9.2-9.2c0.3,0.5,0.6,1,1.1,1.4
		c0.4,0.4,0.9,0.8,1.4,1.1L58.6,22.7z M74.3,10.4c-1.6,1.6-4.2,1.6-5.8,0c-1.6-1.6-1.6-4.2,0-5.8c1.6-1.6,4.2-1.6,5.8,0
		C75.9,6.2,75.9,8.8,74.3,10.4z"/>
	<path d="M26.4,52.4c-0.6-0.6-1.5-0.6-2.1,0L10,66.7c-0.6,0.6-0.6,1.5,0,2.1c0.6,0.6,1.5,0.6,2.1,0l14.4-14.4
		C27,53.9,27,53,26.4,52.4z"/>
	<path d="M30.7,48.2c-0.6-0.6-1.5-0.6-2.1,0L27.8,49c-0.6,0.6-0.6,1.5,0,2.1s1.5,0.6,2.1,0l0.8-0.8C31.3,49.7,31.3,48.7,30.7,48.2z"
		/>
</g>
</svg>
