<svg id="D10-100" xmlns="http://www.w3.org/2000/svg" xmlns:xlink="http://www.w3.org/1999/xlink" viewBox="0 0 97.2 102.8">
<path d="M96.7,40.9l-8.9-14.2c-0.3-0.5-0.8-0.9-1.4-1.2c0,0-54.2-25.3-54.3-25.3C31.8,0.1,31.4,0,31,0c-1.2,0-2.3,0.7-2.8,1.8
	l-27.9,55c-0.6,1.1-0.4,2.4,0.3,3.4l11,14c0.3,0.3,0.6,0.6,1,0.8L64,102.4c0.2,0.1,0.5,0.2,0.7,0.3c0.3,0.1,0.5,0.1,0.8,0.1
	c1.2,0,2.3-0.6,2.9-1.8l0.4-0.8L96.9,44C97.4,43,97.3,41.8,96.7,40.9z M28.1,13.1l1.6,22.7l-18.6,21l-5-0.3L28.1,13.1z M15.8,59
	l17.5-19.8l30.9,3.6l0.5,54.3L15.8,59z M66,38l-31.4-3.7l-2-28.4L80,28L66,38z M69.6,87.4l-0.4-45.5l15.4-11L92,42.7L69.6,87.4z"/>
</svg>
