<svg id="D12" xmlns="http://www.w3.org/2000/svg" xmlns:xlink="http://www.w3.org/1999/xlink" viewBox="0 0 100.5 103.7">
<path d="M47.7,0L47.7,0c-0.8,0-1.7,0.2-2.4,0.7l-0.8,0.5l0,0L23.7,15.3c-0.2,0.1-0.3,0.2-0.5,0.4L2.4,34.8l-1.1,1
	c-0.5,0.5-0.9,1-1.1,1.7c-0.2,0.6-0.3,1.3-0.2,2l0.1,0.4l5.5,32.2c0.1,0.4,0.2,0.8,0.4,1.2l9.7,18.1l0.9,1.7
	c0.3,0.5,0.6,0.9,1.1,1.3l0,0c0.4,0.3,0.9,0.6,1.4,0.7l32.8,8.5c0.8,0.2,1.7,0.2,2.6-0.2l21.4-8.9l1.7-0.7c0.6-0.2,1.1-0.6,1.5-1.1
	l1-1.2l19.5-22.7c0.3-0.4,0.6-0.8,0.8-1.3c0.2-0.5,0.2-1,0.2-1.6l-2.3-31.5c0-0.1,0-0.2,0-0.3l0,0c-0.1-0.7-0.4-1.4-0.8-1.9
	l-1.1-1.4l0,0L82,12.8c-0.5-0.6-1.1-1-1.8-1.3L49,0.2C48.6,0.1,48.1,0,47.7,0z M68.2,35.6L68.2,35.6L56.9,72.5L20.7,74l-12-35.7
	l29.8-23.5L68.2,35.6z M10.5,71.1l-4-23.8l9.9,29.6l-0.2,4.8L10.5,71.1z M52.9,98.7l-32.1-8.4v-0.1l0.5-11.3l36.5-1.5l14.1,13.3
	L52.9,98.7z M95.5,65.9L76.4,88.1l-14.8-14L73,37l0,0l20.4-1L95.5,65.9z M78.1,16.2l12,15l-18.2,0.9L42.2,11.3l5.5-6.1L78.1,16.2z"
	/>
</svg>
