<svg id="D20" xmlns="http://www.w3.org/2000/svg" xmlns:xlink="http://www.w3.org/1999/xlink" viewBox="0 0 105.7 103.7">
<path d="M104.9,35.9L104.9,35.9L64.4,0.6c-0.6-0.6-1.5-0.8-2.3-0.5L18.9,11.9c-0.8,0.2-1.5,0.8-1.7,1.6
	c0,0-16.7,50-17,50.9s-0.2,2,0.7,2.8s40.3,35.4,40.8,35.9s1.6,0.7,2.3,0.5s42.6-13.2,42.6-13.2c0.8-0.2,1.4-0.8,1.6-1.6l17.3-50.3
	C105.9,37.6,105.7,36.5,104.9,35.9z M87.4,64.4L76.9,23.6l23.1,15L87.4,64.4z M37.5,60.8l43.3,11.8L45,97L37.5,60.8z M83.2,68.1
	l-44.3-12l32.7-33.2L83.2,68.1z M61.7,5.4l6.4,9.7l-33.4-2.3L61.7,5.4z M67.3,20.1L35.2,52.6L23.3,17L67.3,20.1z M19.7,21.9
	l11.2,33.7L6.4,61.8L19.7,21.9z M7.8,66.6l24.5-6.2l7.1,34L7.8,66.6z M58.4,93.9l25.5-17.4l-0.4,9.7L58.4,93.9z"/>
</svg>
