<?xml version="1.0" encoding="utf-8"?>
<!-- Generator: Adobe Illustrator 22.1.0, SVG Export Plug-In . SVG Version: 6.00 Build 0)  -->
<svg version="1.1" id="logo" xmlns="http://www.w3.org/2000/svg" xmlns:xlink="http://www.w3.org/1999/xlink" x="0px" y="0px"
	 viewBox="0 0 279.2 137.6" style="enable-background:new 0 0 279.2 137.6;" xml:space="preserve">
<g id="role">
	<path d="M25.7,93.1L15.2,74h-3v19.1H0V42.5h20.6c3.5-0.1,7,0.6,10.2,2.1c2.6,1.2,4.8,3.2,6.3,5.7c1.4,2.5,2.1,5.3,2.1,8.1
		c0,3.2-1,6.4-2.8,9c-2.1,2.8-5,4.7-8.4,5.6l11.7,20L25.7,93.1z M12.3,65.3h7.6c1.8,0.1,3.7-0.5,5.1-1.7c1.2-1.3,1.8-3,1.7-4.7
		c0.1-1.7-0.5-3.3-1.7-4.5c-1.4-1.2-3.2-1.8-5.1-1.7h-7.6C12.3,52.7,12.3,65.3,12.3,65.3z"/>
	<path d="M57.8,90.3c-3.9-2.2-7.2-5.4-9.4-9.3c-2.4-4.1-3.6-8.7-3.5-13.4c-0.1-4.7,1.1-9.3,3.5-13.3c2.3-3.9,5.5-7,9.4-9.2
		c8.2-4.4,18-4.4,26.1,0c3.9,2.2,7.1,5.3,9.4,9.2c2.3,4.1,3.5,8.7,3.4,13.3c0.1,4.7-1.1,9.3-3.4,13.4c-2.2,3.9-5.5,7.1-9.4,9.3
		C75.7,94.7,65.9,94.7,57.8,90.3z M80.5,78.3c2.4-2.7,3.6-6.2,3.6-10.7s-1.2-8-3.6-10.6c-2.5-2.7-6-4.2-9.7-4
		c-3.7-0.2-7.2,1.3-9.8,4c-2.4,2.7-3.6,6.2-3.6,10.7s1.2,8,3.6,10.7c2.5,2.7,6.1,4.2,9.8,4C74.5,82.5,78,81,80.5,78.3L80.5,78.3z"/>
	<path d="M115.8,83.5h16.1V93h-28.4V42.5h12.3C115.8,42.5,115.8,83.5,115.8,83.5z"/>
	<path d="M150.2,52.4v10.2h16.5v9.5h-16.5v11.1h18.6v9.9h-31V42.5h31v9.9C168.8,52.4,150.2,52.4,150.2,52.4z"/>
</g>
<g id="initiative">
	<path d="M4.3,107.8v17.6H0v-17.6H4.3z"/>
	<path d="M36,125.3h-4.3l-7.1-10.8v10.8h-4.3v-17.6h4.3l7.2,10.9v-10.9h4.3L36,125.3L36,125.3z"/>
	<path d="M56.3,107.8v17.6H52v-17.6H56.3z"/>
	<path d="M85,107.8v3.4h-4.7v14.1H76v-14.1h-4.7v-3.4H85z"/>
	<path d="M104.4,107.8v17.6h-4.3v-17.6H104.4z"/>
	<path d="M131.4,122.2h-6.6l-1,3.1h-4.5l6.3-17.5h5l6.4,17.6h-4.6L131.4,122.2z M130.2,118.9l-2.2-6.4l-2.2,6.4H130.2z"/>
	<path d="M164.4,107.8v3.4h-4.6v14.1h-4.3v-14.1h-4.6v-3.4H164.4z"/>
	<path d="M183.8,107.8v17.6h-4.3v-17.6H183.8z"/>
	<path d="M216.3,107.8l-6.2,17.6h-5.4l-6.2-17.6h4.6l4.4,13.3l4.4-13.3H216.3z"/>
	<path d="M235.3,111.2v3.6h5.7v3.3h-5.7v3.8h6.5v3.4H231v-17.5h10.8v3.4C241.8,111.2,235.3,111.2,235.3,111.2z"/>
</g>
</svg>
