<?xml version="1.0" encoding="utf-8"?>
<!-- Generator: Adobe Illustrator 22.1.0, SVG Export Plug-In . SVG Version: 6.00 Build 0)  -->
<svg version="1.1" id="logo" xmlns="http://www.w3.org/2000/svg" xmlns:xlink="http://www.w3.org/1999/xlink" x="0px" y="0px"
	 viewBox="0 0 279.2 137.6" style="enable-background:new 0 0 279.2 137.6;" xml:space="preserve">
<path id="dice" d="M154.2,56.4v2.2h1.1l0.7-2.2H154.2z M154.2,56.4v2.2h1.1l0.7-2.2H154.2z M154.2,56.4v2.2h1.1l0.7-2.2H154.2z
	 M278.2,47.6L224.5,0.8c-0.8-0.7-1.9-1-3-0.7l-57.3,15.7c-1,0.3-1.9,1.1-2.2,2.1l-6.9,20.6h6.8l3.2-9.6l3.2,9.6h0.5c2.2,0,4,1.8,4,4
	V52l7.3,21.7l-21.4,5.5h10.1c0.1,0,0.3,0,0.4,0c0.1,0,0.3,0,0.4,0.1c0.1,0,0.2,0,0.4,0.1c0.1,0,0.3,0.1,0.4,0.1
	c0.1,0,0.2,0.1,0.4,0.2c0.2,0.1,0.5,0.3,0.6,0.4c0.1,0.1,0.2,0.2,0.3,0.3c0.1,0.1,0.2,0.2,0.3,0.3c0.2,0.2,0.3,0.4,0.4,0.6
	c0.1,0.2,0.2,0.4,0.3,0.7c0,0.1,0.1,0.2,0.1,0.3l9.2-2.3l5.4,25.9l0.5,2.4l3.6,17.1l-3.6-3.1v3.1c0,1.5-0.9,2.9-2.2,3.6l8.8,7.8
	c0.6,0.5,1.4,0.8,2.1,0.8c0.3,0,0.7,0,1-0.1l30.5-9.4c-0.6-0.7-0.9-1.6-0.9-2.6v-3.9l-10.9,3.4l10.9-7.4v-7.9l-9.3,6.4l-3.9,10.9
	c-0.6,1.6-2.1,2.7-3.8,2.7h-5.4c-1.5,0-2.9-0.9-3.6-2.2l-2.4,1.7L188.6,81l57.7,15.7l-11,7.5h6.5c1.2,0,2.2,0.5,3,1.4l5.6-3.8
	l-0.6,13l-4.8,1.5v2.2c0,0.4-0.1,0.9-0.2,1.3c0.6,0.7,1,1.6,0.9,2.6v0.5l8.2-2.5c1-0.3,1.8-1,2.1-2l23-66.8
	C279.5,49.8,279.1,48.5,278.2,47.6z M220.9,7.2l8.6,13L184.6,17L220.9,7.2z M185.7,69.8l-15.9-47.3l58.6,4.1L185.7,69.8z
	 M190.4,74.3l43.7-44.1l15.4,60.1L190.4,74.3z M254.9,85.6L241,31.2l30.8,20L254.9,85.6z M154.2,58.6h1.1l0.7-2.2h-1.8V58.6z
	 M154.2,56.4v2.2h1.1l0.7-2.2H154.2z M159.3,97.1l-0.1-0.1h-9.8l0.1,0.1l7.5,6.6h7.4c2.2,0,4,1.8,4,4v3.4c0,0.7-0.2,1.4-0.6,2.1
	l7.7,6.8v-8.7L159.3,97.1z M154.2,56.4v2.2h1.1l0.7-2.2H154.2z M154.2,56.4v2.2h1.1l0.7-2.2H154.2z"/>
</svg>
