<?xml version="1.0" encoding="utf-8"?>
<!-- Generator: Adobe Illustrator 22.1.0, SVG Export Plug-In . SVG Version: 6.00 Build 0)  -->
<svg version="1.1" id="logout-door" xmlns="http://www.w3.org/2000/svg" xmlns:xlink="http://www.w3.org/1999/xlink" x="0px"
	 y="0px" viewBox="0 0 189.5 219.3" style="enable-background:new 0 0 189.5 219.3;" xml:space="preserve">
<path d="M123.5,65.2V27.8c0-5.6-4.5-10.1-10.1-10.1H27.8c-5.6,0-10.1,4.5-10.1,10.1v163.7c0,5.6,4.5,10.1,10.1,10.1h85.5
	c5.6,0,10.1-4.5,10.1-10.1v-37.4c0-2,1.6-3.6,3.6-3.6h10.7c2,0,3.6,1.6,3.6,3.6v37.4c0,15.4-12.4,27.8-27.8,27.8H27.8
	C12.4,219.3,0,206.9,0,191.5V27.8C0,12.4,12.4,0,27.8,0h85.6c15.4,0,27.8,12.4,27.8,27.8v37.4c0,2-1.6,3.6-3.6,3.6h-10.6
	C125.1,68.8,123.5,67.2,123.5,65.2z"/>
</svg>
