<?xml version="1.0" encoding="utf-8"?>
<!-- Generator: Adobe Illustrator 22.1.0, SVG Export Plug-In . SVG Version: 6.00 Build 0)  -->
<svg version="1.1" id="user-dice" xmlns="http://www.w3.org/2000/svg" xmlns:xlink="http://www.w3.org/1999/xlink" x="0px" y="0px"
	 viewBox="0 0 234 219.3" style="enable-background:new 0 0 234 219.3;" xml:space="preserve">
<path d="M233.2,154.1c-0.1-0.1-0.3-0.3-0.3-0.3l-38.5-33.6c-0.6-0.6-1.4-0.8-2.2-0.6l-41.6,11.3
	c-0.8,0.2-1.4,0.8-1.6,1.5c0,0-16.1,48.3-16.3,49c-0.3,0.8-0.2,1.9,0.6,2.6c0.4,0.4,39,34.4,39.2,34.6c0.5,0.4,1.3,0.8,2.2,0.5
	c0.2-0.1,41.1-12.7,41.1-12.7c0.8-0.2,1.3-0.8,1.6-1.5c0,0,16.4-47.9,16.6-48.3C234.1,156.1,233.9,154.9,233.2,154.1z M193.7,140.2
	l-26.9,27.3l-9.8-29.8L193.7,140.2z M151.3,145.5l8.9,26.5l-19.4,4.8L151.3,145.5z M143.1,184.4l19.2-4.9l5.7,26.8L143.1,184.4z
	 M176.7,210.4l-6.2-30.2l36.1,9.8L176.7,210.4z M172.7,172.7l27.6-28.2l9.9,38.4L172.7,172.7z M216.9,177.1l-8.3-31.6l17.9,11.7
	L216.9,177.1z"/>
</svg>
