<?xml version="1.0" encoding="utf-8"?>
<!-- Generator: Adobe Illustrator 22.1.0, SVG Export Plug-In . SVG Version: 6.00 Build 0)  -->
<svg version="1.1" id="user-silhouette" xmlns="http://www.w3.org/2000/svg" xmlns:xlink="http://www.w3.org/1999/xlink" x="0px" y="0px"
	 viewBox="0 0 234 219.3" style="enable-background:new 0 0 234 219.3;" xml:space="preserve">
<g>
	<path id="user-silhouette-head" d="M97.7,17.6c19.2,0,34.7,15.6,34.7,34.7S116.8,87,97.7,87C78.5,87,63,71.4,63,52.3
		C63,33.1,78.6,17.6,97.7,17.6 M97.7,0C68.9,0,45.5,23.4,45.5,52.3s23.4,52.3,52.3,52.3s52.3-23.4,52.3-52.3l0,0
		C150,23.4,126.6,0,97.7,0z"/>
	<path id="user-silhouette-torso_1_" d="M97.7,201.8c-26.1,0-51.9-6.6-74.7-19.4c-4.1-2.5-5.8-7.6-4-12.1c3.7-9,9.6-16.8,17.2-22.8
		c10-7.8,22.2-12,34.9-12.1h53.3c5.6,0,11.1,0.8,16.4,2.6l2.5-7.4c0.8-2.6,3-4.6,5.6-5.3l4.9-1.4c-9.3-4-19.3-6.1-29.4-6.1H71.1
		c-16.6,0-32.7,5.6-45.8,15.8c-11.1,8.7-19.4,20.4-24,33.7c-3.8,11,1.2,23.4,11.4,29.3c25.9,14.9,55.2,22.7,85,22.6
		c19.1,0,38-3.1,56-9.4l-15.6-13.6C125,199.9,111.4,201.8,97.7,201.8z"/>
</g>
</svg>
