<?xml version="1.0" encoding="utf-8"?>
<!-- Generator: Adobe Illustrator 22.1.0, SVG Export Plug-In . SVG Version: 6.00 Build 0)  -->
<svg version="1.1" id="D20" xmlns="http://www.w3.org/2000/svg" xmlns:xlink="http://www.w3.org/1999/xlink" x="0px" y="0px"
	 viewBox="0 0 144 141.4" style="enable-background:new 0 0 144 141.4;" xml:space="preserve">
<style type="text/css">
	.st0{fill:#000C1F;}
	.st1{fill:#FF8533;}
</style>
<path class="st0" d="M70.7,0h2.6c39,0,70.7,31.6,70.7,70.7v0c0,39-31.6,70.7-70.7,70.7h-2.6c-39,0-70.7-31.6-70.7-70.7v0
	C0,31.6,31.6,0,70.7,0z"/>
<path class="st1" d="M126,54.1L126,54.1L84,17.5c-0.6-0.6-1.6-0.8-2.4-0.5L36.7,29.2c-0.8,0.2-1.6,0.8-1.8,1.7
	c0,0-17.3,51.9-17.7,52.9c-0.3,0.9-0.2,2.1,0.7,2.9c0.9,0.8,41.9,36.8,42.4,37.3c0.5,0.5,1.7,0.7,2.4,0.5s44.3-13.7,44.3-13.7
	c0.8-0.2,1.5-0.8,1.7-1.7l18-52.3C127.1,55.9,126.9,54.8,126,54.1z M107.9,83.7L97,41.4l24,15.6L107.9,83.7z M56,80l45,12.3
	l-37.2,25.3L56,80z M103.5,87.6l-46-12.5l34-34.5L103.5,87.6z M81.2,22.5l6.6,10.1l-34.7-2.4L81.2,22.5z M87,37.7L53.6,71.5
	l-12.4-37L87,37.7z M37.5,39.6l11.6,35L23.7,81L37.5,39.6z M25.2,86l25.5-6.4l7.4,35.3L25.2,86z M77.7,114.4l26.5-18.1l-0.4,10.1
	L77.7,114.4z"/>
</svg>
